<?xml version="1.0" encoding="UTF-8"?>
<svg class="icon-close" width="512px" height="512px" enable-background="new 0 0 23.331 23.331" version="1.1" viewBox="0 0 23.331 23.331" xml:space="preserve" xmlns="http://www.w3.org/2000/svg">
	<path d="m16.043 11.667l6.566-6.567c0.963-0.963 0.963-2.539 0-3.502l-0.875-0.875c-0.963-0.964-2.539-0.964-3.502 0l-6.566 6.567-6.567-6.567c-0.962-0.963-2.538-0.963-3.501 0l-0.876 0.875c-0.962 0.963-0.962 2.539 0 3.502l6.566 6.566-6.566 6.567c-0.962 0.963-0.962 2.539 0 3.501l0.876 0.875c0.963 0.963 2.539 0.963 3.501 0l6.567-6.565 6.566 6.565c0.963 0.963 2.539 0.963 3.502 0l0.875-0.875c0.963-0.963 0.963-2.539 0-3.501l-6.566-6.566z" />
</svg>
