<?xml version="1.0" encoding="utf-8"?>
<!-- Generator: Adobe Illustrator 21.1.0, SVG Export Plug-In . SVG Version: 6.00 Build 0)  -->
<svg version="1.1" id="Capa_1" xmlns="http://www.w3.org/2000/svg" xmlns:xlink="http://www.w3.org/1999/xlink" x="0px" y="0px"
	 viewBox="0 0 512 512" style="enable-background:new 0 0 512 512;" xml:space="preserve">
<g>
	<g id="_x33_56._Play">
		<g>
			<path d="M477.7,128C407,5.6,250.4-36.3,128,34.3C5.6,105-36.4,261.6,34.3,384C105,506.4,261.6,548.3,384,477.7
				C506.4,407,548.4,250.4,477.7,128z M358.4,433.3c-97.9,56.6-223.2,23-279.7-74.9c-56.6-97.9-23-223.2,74.9-279.7
				c97.9-56.6,223.2-23,279.7,74.9C489.9,251.6,456.3,376.8,358.4,433.3z M348.1,245.6l-134-78.2c-12.2-7.1-22.1-1.4-22,12.7
				l0.7,155.2c0.1,14.1,10,19.9,22.3,12.8l133-76.8C360.3,264.2,360.4,252.7,348.1,245.6z"/>
		</g>
	</g>
</g>
</svg>
